P3

# feep.ppm

4 4 15

# resolucao: 4x4 | intensidade: 15

0 0 0 0 0 0 0 0 0 15 0 15

0 0 0 0 15 7 0 0 0 0 0 0

0 0 0 0 0 0 0 15 7 0 0 0

15 0 15 0 0 0 0 0 0 0 0 0